<svg width="941" height="154" viewBox="0 0 941 154" fill="none" xmlns="http://www.w3.org/2000/svg">
<path d="M278.104 124.536C253.656 124.536 235.224 107.256 235.224 79.096V77.304C235.224 50.552 253.528 31.864 278.36 31.864C291.16 31.864 300.376 35.576 309.08 42.744L296.28 60.152C291.672 55.928 286.424 52.856 278.744 52.856C267.352 52.856 258.648 62.84 258.648 77.688V78.968C258.648 95.352 267.352 104.312 279 104.312C283.48 104.312 286.936 103.416 289.368 101.752V88.44H275.16V70.648H311V113.272C302.68 119.8 291.8 124.536 278.104 124.536ZM314.077 123L345.565 32.888H368.989L400.477 123H376.285L371.037 106.872H342.877L337.757 123H314.077ZM348.765 88.44H365.277L356.957 62.2L348.765 88.44ZM405.036 123V33.4H428.844L446.892 66.424L464.94 33.4H488.748V123H466.092V72.568L446.892 105.848H446.508L427.564 72.696V123H405.036ZM499.476 123V33.4H561.172V53.496H522.388V68.344H557.332V87.416H522.388V102.776H561.684V123H499.476ZM569.916 123V33.4H601.916C623.036 33.4 636.86 44.408 636.86 64.504V65.016C636.86 86.392 621.244 96.888 601.66 96.888H592.956V123H569.916ZM592.956 78.2H600.892C609.084 78.2 613.948 73.464 613.948 65.784V65.528C613.948 57.336 609.084 52.984 600.764 52.984H592.956V78.2ZM629.087 123L660.575 32.888H683.999L715.487 123H691.295L686.047 106.872H657.887L652.767 123H629.087ZM663.775 88.44H680.287L671.967 62.2L663.775 88.44ZM720.046 123V33.4H755.246C767.534 33.4 776.366 36.6 782.126 42.36C787.374 47.608 789.934 54.648 789.934 63.48V64.12C789.934 77.432 783.662 85.752 773.934 90.488L792.494 123H766.382L751.15 95.224H743.086V123H720.046ZM743.086 76.792H754.35C762.158 76.792 766.766 72.44 766.766 65.272V64.888C766.766 57.208 762.03 53.368 754.222 53.368H743.086V76.792ZM815.534 123V54.008H793.39V33.4H860.846V54.008H838.574V123H815.534ZM888.939 123V89.464L860.011 33.4H885.739L900.715 65.656L915.819 33.4H940.907L911.979 89.208V123H888.939Z" fill="#151515"/>
<path d="M143.5 16H61.5C45.1892 16 29.5464 22.4794 18.0129 34.0129C6.47945 45.5464 0 61.1892 0 77.5C0 93.8108 6.47945 109.454 18.0129 120.987C29.5464 132.521 45.1892 139 61.5 139H143.5C159.811 139 175.454 132.521 186.987 120.987C198.521 109.454 205 93.8108 205 77.5C205 61.1892 198.521 45.5464 186.987 34.0129C175.454 22.4794 159.811 16 143.5 16ZM92.25 87.75H71.75V108.25H51.25V87.75H30.75V67.25H51.25V46.75H71.75V67.25H92.25V87.75ZM128.125 108.25C124.047 108.25 120.137 106.63 117.253 103.747C114.37 100.863 112.75 96.9527 112.75 92.875C112.75 88.7973 114.37 84.8866 117.253 82.0032C120.137 79.1199 124.047 77.5 128.125 77.5C132.203 77.5 136.113 79.1199 138.997 82.0032C141.88 84.8866 143.5 88.7973 143.5 92.875C143.5 96.9527 141.88 100.863 138.997 103.747C136.113 106.63 132.203 108.25 128.125 108.25ZM158.875 77.5C154.797 77.5 150.887 75.8801 148.003 72.9968C145.12 70.1134 143.5 66.2027 143.5 62.125C143.5 58.0473 145.12 54.1366 148.003 51.2532C150.887 48.3699 154.797 46.75 158.875 46.75C162.953 46.75 166.863 48.3699 169.747 51.2532C172.63 54.1366 174.25 58.0473 174.25 62.125C174.25 66.2027 172.63 70.1134 169.747 72.9968C166.863 75.8801 162.953 77.5 158.875 77.5Z" fill="#E60012"/>
</svg>
